<svg width="697" height="411" viewBox="0 0 697 411" fill="none" xmlns="http://www.w3.org/2000/svg">
<path d="M315.387 282.709C328.788 290.042 325.198 301.764 317.813 313.156C307.364 329.271 268.583 346.749 251.651 346.402C236.11 346.083 225.064 338.753 225.399 326.668" fill="white"/>
<path d="M315.387 282.709C328.788 290.042 325.198 301.764 317.813 313.156C307.364 329.271 268.583 346.749 251.651 346.402C236.11 346.083 225.064 338.753 225.399 326.668" stroke="#1958B6" stroke-width="4.99999" stroke-linecap="round" stroke-linejoin="round"/>
<path d="M100.749 307.499C101.819 326.602 132.696 321.007 163.73 309.997C175.78 305.723 218.344 330.002 248.855 324.061C268.705 320.197 307.055 299.921 314.658 282.55C327.675 252.806 326.718 224.703 316.553 195.145C312.95 184.667 307.205 173.641 301.594 165.157C283.167 137.297 268.325 52.3542 262.08 46.093C244.733 28.6934 227.882 54.4872 230.551 70.5709C231.843 78.3612 234.607 136.632 229.508 128.116C216.982 107.195 204.423 80.5046 194.004 54.6234C178.412 15.8944 133.639 53.7753 148.61 89.8893C155.623 106.808 159.491 121.757 176.028 159.146C159.279 143.539 133.806 121.938 119.665 105.002C96.3457 77.0757 62.5694 121.388 91.7984 154.933C111.704 177.778 152.072 215.016 175.694 261.041C149.936 256.582 97.5177 249.875 100.745 307.495L100.749 307.499Z" fill="white" stroke="#1958B6" stroke-width="4.99999" stroke-linecap="round" stroke-linejoin="round"/>
<path d="M171.444 160.762C190.532 180.885 204.933 186.848 211.139 190.534C198.826 178.242 195.377 175.452 183.233 161.347C181.174 158.956 179.169 155.827 177.347 151.648L171.444 160.762Z" fill="#1958B6"/>
<path d="M225.844 130.411C234.208 144.358 247.642 159.17 259.018 166.689C254.339 159.143 246.185 146.245 238.849 134.915C236.859 131.842 235.833 128.611 236.298 123.421C233.321 126.472 229.492 128.297 225.845 130.412L225.844 130.411Z" fill="#1958B6"/>
<path d="M289.159 279.158C286.298 257.002 283.217 251.926 280.204 241.514" stroke="#1958B6" stroke-width="4.99999" stroke-linecap="round" stroke-linejoin="round"/>
<path d="M272.595 290.442C263.495 267.469 256.953 257.282 249.499 242.532" stroke="#1958B6" stroke-width="4.99999" stroke-linecap="round" stroke-linejoin="round"/>
<path d="M252.43 303.314C244.109 288.488 238.806 282.267 232.568 273.38" stroke="#1958B6" stroke-width="4.99999" stroke-linecap="round" stroke-linejoin="round"/>
<path d="M500.781 342.178C501.185 358.438 488.45 361.332 473.966 360.589C453.478 359.533 416.602 332.988 407.863 317.17C399.885 302.58 400.684 288.59 412.115 282.316" fill="white"/>
<path d="M500.781 342.178C501.185 358.438 488.45 361.332 473.966 360.589C453.478 359.533 416.602 332.988 407.863 317.17C399.885 302.58 400.684 288.59 412.115 282.316" stroke="#1958B6" stroke-width="4.99993" stroke-linecap="round" stroke-linejoin="round"/>
<path d="M417.636 176.204C398.085 206.166 399.164 271.423 426.992 302.728C441.471 318.707 480.457 343.58 500.612 341.291C535.045 337.525 560.574 321.524 582.494 296.345C590.247 287.421 597.338 276.277 602.227 266.488C619.669 230.411 604.734 194.668 597.949 180.125C610.617 157.356 628.601 131.481 646.98 108.015C674.473 72.9164 615.523 51.73 590.106 84.8737C578.208 100.39 566.438 111.96 540.686 147.222C546.184 123.387 552.56 88.2879 560.669 66.1701C574.052 29.6782 515.02 22.1062 499.597 67.0633C489.096 97.679 485.951 122.873 476.079 152.117C468.035 153.28 437.944 145.102 417.636 176.204Z" fill="white" stroke="#1958B6" stroke-width="4.99993" stroke-linecap="round" stroke-linejoin="round"/>
<path d="M536.71 143.902C528.291 172.304 530.469 188.8 530.323 196.598C535.156 178.58 535.901 173.886 542.458 155.129C543.577 151.939 545.397 148.418 548.293 144.494L536.71 143.902V143.902Z" fill="#1958B6"/>
<path d="M593.837 178.014C585.393 193.212 578.872 213.541 578 228.066C586.808 211.417 593.746 198.264 601.766 182.209C601.725 182.185 597.731 180.273 593.832 178.022L593.837 178.014Z" fill="#1958B6"/>
<path d="M490.058 316.019C509.047 301.497 512.115 295.911 520.091 287.642" stroke="#1958B6" stroke-width="4.99993" stroke-linecap="round" stroke-linejoin="round"/>
<path d="M470.775 306.725C487.194 285.989 493.151 274.452 502.761 259.77" stroke="#1958B6" stroke-width="4.99993" stroke-linecap="round" stroke-linejoin="round"/>
<path d="M448.098 294.946C457.393 279.293 460.345 271.013 465.146 260.649" stroke="#1958B6" stroke-width="4.99993" stroke-linecap="round" stroke-linejoin="round"/>
<path d="M472.69 147.612C461.269 185.106 443.724 192.317 427.381 205.214C447.531 193.727 464.728 195.773 480.538 153.378L472.69 147.612V147.612Z" fill="#1958B6"/>
<path d="M306.516 295.773C297.256 310.93 307.719 320.62 321.822 327.825C341.774 338.013 391.139 333.043 408.04 322.856C423.551 313.414 430.434 299.749 423.049 287.574" fill="white"/>
<path d="M306.516 295.773C297.256 310.93 307.719 320.62 321.822 327.825C341.774 338.013 391.139 333.043 408.04 322.856C423.551 313.414 430.434 299.749 423.049 287.574" stroke="#1958B6" stroke-width="4.99983" stroke-linecap="round" stroke-linejoin="round"/>
<path d="M475.764 184.212C477.893 223.221 441.245 284.343 397.835 298.755C375.419 305.96 324.97 308.196 307.16 295.028C276.653 272.666 261.248 243.595 254.266 207.816C251.807 195.144 251.185 180.733 251.906 168.807C254.451 120.07 269.841 83.814 303.105 89.4715C313.264 49.5331 374.927 59.104 375.222 89.6206C406.69 54.2341 452.465 87.2432 433.647 129.524C440.619 135.015 473.54 143.712 475.764 184.212V184.212Z" fill="white" stroke="#1958B6" stroke-width="4.99983" stroke-linecap="round" stroke-linejoin="round"/>
<path d="M370.052 91.0617C360.289 121.901 364.2 134.735 363.883 143.245C369.522 123.669 370.43 118.56 377.967 98.2125C379.253 94.7524 380.942 91.2508 384.718 87.3844L369.518 85.1459C369.413 84.3986 370.406 88.7853 370.052 91.0605L370.052 91.0617Z" fill="#1958B6"/>
<path d="M299.077 85.6205C295.322 104.231 292.814 127.537 296.715 142.939C298.63 132.675 305.343 106.469 307.916 90.9576C307.948 90.9626 307.885 90.9863 299.077 85.6195L299.077 85.6205Z" fill="#1958B6"/>
<path d="M330.938 276.89C320.91 252.788 321.059 245.831 318.03 233.657" stroke="#1958B6" stroke-width="4.99983" stroke-linecap="round" stroke-linejoin="round"/>
<path d="M354.249 278.629C350.043 250.055 350.708 235.893 349.638 216.761" stroke="#1958B6" stroke-width="4.99983" stroke-linecap="round" stroke-linejoin="round"/>
<path d="M382.125 279.871C381.881 259.994 383.61 250.552 384.729 238.129" stroke="#1958B6" stroke-width="4.99983" stroke-linecap="round" stroke-linejoin="round"/>
<path d="M439.312 127.114C429.641 168.807 442.296 185.206 450.709 206.325C437.925 184.46 420.545 177.006 428.742 128.282L439.312 127.114V127.114Z" fill="#1958B6"/>
<g filter="url(#filter0_f_17_4)">
<rect x="103.691" y="147.267" width="550.536" height="123.59" fill="white"/>
</g>
<path d="M205.192 186.608V232.496C205.192 239.6 203.176 245.072 199.144 248.912C195.176 252.752 189.8 254.672 183.016 254.672C175.912 254.672 170.216 252.656 165.928 248.624C161.64 244.592 159.496 238.864 159.496 231.44H175.816C175.816 234.256 176.392 236.4 177.544 237.872C178.696 239.28 180.36 239.984 182.536 239.984C184.52 239.984 186.056 239.344 187.144 238.064C188.232 236.784 188.776 234.928 188.776 232.496V186.608H205.192ZM242.836 254.768C237.588 254.768 232.852 253.648 228.628 251.408C224.468 249.168 221.172 245.968 218.74 241.808C216.372 237.648 215.188 232.784 215.188 227.216C215.188 221.712 216.404 216.88 218.836 212.72C221.268 208.496 224.596 205.264 228.82 203.024C233.044 200.784 237.78 199.664 243.028 199.664C248.276 199.664 253.012 200.784 257.236 203.024C261.46 205.264 264.788 208.496 267.22 212.72C269.652 216.88 270.868 221.712 270.868 227.216C270.868 232.72 269.62 237.584 267.124 241.808C264.692 245.968 261.332 249.168 257.044 251.408C252.82 253.648 248.084 254.768 242.836 254.768ZM242.836 240.56C245.972 240.56 248.628 239.408 250.804 237.104C253.044 234.8 254.164 231.504 254.164 227.216C254.164 222.928 253.076 219.632 250.9 217.328C248.788 215.024 246.164 213.872 243.028 213.872C239.828 213.872 237.172 215.024 235.06 217.328C232.948 219.568 231.892 222.864 231.892 227.216C231.892 231.504 232.916 234.8 234.964 237.104C237.076 239.408 239.7 240.56 242.836 240.56ZM312.313 254L295.993 231.536V254H279.577V182.96H295.993V222.224L312.217 200.432H332.473L310.201 227.312L332.665 254H312.313ZM389.417 226.352C389.417 227.888 389.321 229.488 389.129 231.152H351.977C352.233 234.48 353.289 237.04 355.145 238.832C357.065 240.56 359.401 241.424 362.153 241.424C366.249 241.424 369.097 239.696 370.697 236.24H388.169C387.273 239.76 385.641 242.928 383.273 245.744C380.969 248.56 378.057 250.768 374.537 252.368C371.017 253.968 367.081 254.768 362.729 254.768C357.481 254.768 352.809 253.648 348.713 251.408C344.617 249.168 341.417 245.968 339.113 241.808C336.809 237.648 335.657 232.784 335.657 227.216C335.657 221.648 336.777 216.784 339.017 212.624C341.321 208.464 344.521 205.264 348.617 203.024C352.713 200.784 357.417 199.664 362.729 199.664C367.913 199.664 372.521 200.752 376.553 202.928C380.585 205.104 383.721 208.208 385.961 212.24C388.265 216.272 389.417 220.976 389.417 226.352ZM372.617 222.032C372.617 219.216 371.657 216.976 369.737 215.312C367.817 213.648 365.417 212.816 362.537 212.816C359.785 212.816 357.449 213.616 355.529 215.216C353.673 216.816 352.521 219.088 352.073 222.032H372.617ZM430.717 199.856C436.989 199.856 441.981 201.904 445.693 206C449.469 210.032 451.357 215.6 451.357 222.704V254H435.037V224.912C435.037 221.328 434.109 218.544 432.253 216.56C430.397 214.576 427.901 213.584 424.765 213.584C421.629 213.584 419.133 214.576 417.277 216.56C415.421 218.544 414.493 221.328 414.493 224.912V254H398.077V200.432H414.493V207.536C416.157 205.168 418.397 203.312 421.213 201.968C424.029 200.56 427.197 199.856 430.717 199.856ZM479.181 208.016C480.781 205.52 482.989 203.504 485.805 201.968C488.621 200.432 491.917 199.664 495.693 199.664C500.109 199.664 504.109 200.784 507.693 203.024C511.277 205.264 514.093 208.464 516.141 212.624C518.253 216.784 519.309 221.616 519.309 227.12C519.309 232.624 518.253 237.488 516.141 241.712C514.093 245.872 511.277 249.104 507.693 251.408C504.109 253.648 500.109 254.768 495.693 254.768C491.981 254.768 488.685 254 485.805 252.464C482.989 250.928 480.781 248.944 479.181 246.512V279.536H462.765V200.432H479.181V208.016ZM502.605 227.12C502.605 223.024 501.453 219.824 499.149 217.52C496.909 215.152 494.125 213.968 490.797 213.968C487.533 213.968 484.749 215.152 482.445 217.52C480.205 219.888 479.085 223.12 479.085 227.216C479.085 231.312 480.205 234.544 482.445 236.912C484.749 239.28 487.533 240.464 490.797 240.464C494.061 240.464 496.845 239.28 499.149 236.912C501.453 234.48 502.605 231.216 502.605 227.12ZM552.305 254.768C547.057 254.768 542.321 253.648 538.097 251.408C533.937 249.168 530.641 245.968 528.209 241.808C525.841 237.648 524.657 232.784 524.657 227.216C524.657 221.712 525.873 216.88 528.305 212.72C530.737 208.496 534.065 205.264 538.289 203.024C542.513 200.784 547.249 199.664 552.497 199.664C557.745 199.664 562.481 200.784 566.705 203.024C570.929 205.264 574.257 208.496 576.689 212.72C579.121 216.88 580.337 221.712 580.337 227.216C580.337 232.72 579.089 237.584 576.593 241.808C574.161 245.968 570.801 249.168 566.513 251.408C562.289 253.648 557.553 254.768 552.305 254.768ZM552.305 240.56C555.441 240.56 558.097 239.408 560.273 237.104C562.513 234.8 563.633 231.504 563.633 227.216C563.633 222.928 562.545 219.632 560.369 217.328C558.257 215.024 555.633 213.872 552.497 213.872C549.297 213.872 546.641 215.024 544.529 217.328C542.417 219.568 541.361 222.864 541.361 227.216C541.361 231.504 542.385 234.8 544.433 237.104C546.545 239.408 549.169 240.56 552.305 240.56ZM553.841 188.528L538.961 196.4V185.072L553.841 177.488L568.721 185.072V196.4L553.841 188.528Z" fill="#001358"/>
<defs>
<filter id="filter0_f_17_4" x="66.6914" y="110.267" width="624.536" height="197.59" filterUnits="userSpaceOnUse" color-interpolation-filters="sRGB">
<feFlood flood-opacity="0" result="BackgroundImageFix"/>
<feBlend mode="normal" in="SourceGraphic" in2="BackgroundImageFix" result="shape"/>
<feGaussianBlur stdDeviation="18.5" result="effect1_foregroundBlur_17_4"/>
</filter>
</defs>
</svg>
