<svg width="159" height="137" viewBox="0 0 159 137" fill="none" xmlns="http://www.w3.org/2000/svg">
<path d="M18.7217 99.2024C12.4376 103.025 8.41386 98.7061 5.44123 92.8837C1.23689 84.6467 3.28528 64.2673 7.50676 57.2902C11.381 50.8867 17.097 48.0453 22.056 51.0943" fill="white"/>
<path d="M18.7217 99.2024C12.4376 103.025 8.41386 98.7061 5.44123 92.8837C1.23689 84.6467 3.28528 64.2673 7.50676 57.2902C11.381 50.8867 17.097 48.0453 22.056 51.0943" stroke="black" stroke-width="4.99999" stroke-linecap="round" stroke-linejoin="round"/>
<path d="M60.0594 3.73061C51.8356 -0.422248 46.7349 13.8004 43.8546 29.3918C42.736 35.446 22.364 47.3496 17.4958 61.503C14.3283 70.7108 13.5504 91.5841 18.9637 98.9367C28.2329 111.526 40.1823 117.893 54.9551 120.77C60.1917 121.79 66.1728 122.049 71.0615 121.752C87.1155 120.775 126.109 135.036 130.224 133.94C141.656 130.895 134.957 117.658 127.607 114.899C124.048 113.562 99.0834 100.686 103.862 100.61C115.602 100.423 129.755 101.612 143.056 103.498C162.96 106.321 157.943 78.5304 139.279 76.0789C130.536 74.9302 123.371 72.9436 103.798 70.8383C114.339 67.6114 129.479 62.19 139.946 60.3705C157.205 57.3697 146.859 32.6168 125.834 36.729C111.515 39.5297 86.2683 47.3978 61.3888 46.1672C69.4496 36.4997 84.8662 16.2563 60.0616 3.72986L60.0594 3.73061Z" fill="white" stroke="black" stroke-width="4.99999" stroke-linecap="round" stroke-linejoin="round"/>
<path d="M104.228 68.5375C91.2411 71.6526 85.2876 76.2222 82.2565 77.9227C90.3464 75.7477 92.3403 74.9809 101.146 73.3129C102.639 73.0301 104.426 72.947 106.608 73.1935L104.228 68.5375Z" fill="black"/>
<path d="M103.787 98.5295C95.9576 98.6595 86.5473 100.695 80.6728 103.629C84.946 103.494 92.2874 103.2 98.7783 102.868C100.539 102.778 102.133 103.128 104.185 104.572C103.63 102.596 103.791 100.56 103.787 98.5295L103.787 98.5295Z" fill="black"/>
<path d="M26.5172 89.1203C36.4447 93.2611 39.3032 93.1987 44.3704 94.4491" stroke="black" stroke-width="4.99999" stroke-linecap="round" stroke-linejoin="round"/>
<path d="M25.7993 79.4967C37.5698 81.2324 43.3929 80.9575 51.3384 81.3999" stroke="black" stroke-width="4.99999" stroke-linecap="round" stroke-linejoin="round"/>
<path d="M25.2864 67.9888C33.4725 68.0884 37.3431 67.3745 42.5508 66.9128" stroke="black" stroke-width="4.99999" stroke-linecap="round" stroke-linejoin="round"/>
</svg>
