<svg width="151" height="126" viewBox="0 0 151 126" fill="none" xmlns="http://www.w3.org/2000/svg">
<path d="M23.4075 32.7635C15.3136 27.8183 10.1388 33.4057 6.29086 40.937C0.850693 51.5918 3.50443 77.954 8.9446 86.9794C13.9867 95.2631 21.2846 98.9385 27.7863 94.995" fill="white"/>
<path d="M23.4075 32.7635C15.3136 27.8183 10.1388 33.4057 6.29086 40.937C0.850693 51.5918 3.50443 77.954 8.9446 86.9794C13.9867 95.2631 21.2846 98.9385 27.7863 94.995" stroke="black" stroke-width="4.99983" stroke-linecap="round" stroke-linejoin="round"/>
<path d="M82.9842 123.146C62.1523 124.283 29.5113 104.712 21.8155 81.53C17.9676 69.5589 16.7734 42.6182 23.8058 33.1072C35.7476 16.8159 51.272 8.58925 70.3789 4.86075C77.1459 3.54715 84.8418 3.21543 91.2108 3.60022C117.237 4.95934 136.599 13.178 133.578 30.9417C154.906 36.3669 149.795 69.2962 133.498 69.4541C152.395 86.2589 134.768 110.704 112.189 100.654C109.256 104.377 104.612 121.958 82.9842 123.146V123.146Z" fill="white" stroke="black" stroke-width="4.99983" stroke-linecap="round" stroke-linejoin="round"/>
<path d="M132.729 66.6929C116.259 61.4792 109.406 63.5677 104.862 63.3988C115.315 66.4103 118.044 66.8948 128.91 70.9196C130.758 71.6064 132.628 72.5086 134.692 74.5253L135.888 66.408C136.287 66.352 133.944 66.8824 132.729 66.6929L132.729 66.6929Z" fill="black"/>
<path d="M135.634 28.7909C125.696 26.7853 113.25 25.4461 105.025 27.5292C110.506 28.5518 124.5 32.1368 132.784 33.5109C132.781 33.528 132.769 33.4944 135.635 28.7908L135.634 28.7909Z" fill="black"/>
<path d="M33.4918 45.8053C46.3625 40.4501 50.0777 40.5297 56.5794 38.9122" stroke="black" stroke-width="4.99983" stroke-linecap="round" stroke-linejoin="round"/>
<path d="M32.5631 58.254C47.8221 56.0076 55.3853 56.3632 65.6022 55.7914" stroke="black" stroke-width="4.99983" stroke-linecap="round" stroke-linejoin="round"/>
<path d="M31.8997 73.1402C42.5146 73.0101 47.5568 73.9336 54.1912 74.5307" stroke="black" stroke-width="4.99983" stroke-linecap="round" stroke-linejoin="round"/>
<path d="M113.476 103.679C91.2108 98.5152 82.4534 105.273 71.175 109.766C82.8515 102.939 86.8321 93.6576 112.852 98.0349L113.476 103.679V103.679Z" fill="black"/>
</svg>
