<svg width="187" height="116" viewBox="0 0 187 116" fill="none" xmlns="http://www.w3.org/2000/svg">
<path d="M21.577 86.1337C14.1648 90.6624 9.42584 85.5456 5.90202 78.6486C0.920067 68.8913 3.35029 44.7494 8.33225 36.4842C12.9497 28.8983 19.6329 25.5325 25.5869 29.1438" fill="white"/>
<path d="M21.577 86.1337C14.1648 90.6624 9.42584 85.5456 5.90202 78.6486C0.920067 68.8913 3.35029 44.7494 8.33225 36.4842C12.9497 28.8983 19.6329 25.5325 25.5869 29.1438" stroke="black" stroke-width="4.99993" stroke-linecap="round" stroke-linejoin="round"/>
<path d="M76.1356 3.36397C57.0584 2.32262 27.1667 20.2455 20.119 41.4747C16.5952 52.4375 15.5016 77.1091 21.9417 85.819C32.8777 100.738 47.0944 108.272 64.592 111.686C70.7891 112.889 77.8368 113.193 83.6693 112.841C105.012 111.274 117.554 94.823 122.468 87.8021C136.381 87.5809 153.149 88.9892 168.909 91.2238C192.482 94.5666 186.541 61.6468 164.426 58.7415C154.073 57.3817 145.579 55.0281 122.395 52.5334C134.886 48.7119 152.821 42.2888 165.215 40.1332C185.666 36.579 173.405 7.25597 148.495 12.1274C131.533 15.4458 119.041 20.7182 102.88 23.9613C100.195 20.5517 95.9419 4.45149 76.1356 3.36397Z" fill="white" stroke="black" stroke-width="4.99993" stroke-linecap="round" stroke-linejoin="round"/>
<path d="M122.869 49.808C107.486 53.4982 100.438 58.9103 96.7926 60.925C106.416 58.349 108.786 57.4401 119.211 55.4643C120.985 55.1301 123.1 55.0317 125.688 55.3233L122.869 49.808V49.808Z" fill="black"/>
<path d="M122.346 85.3366C113.063 85.4897 101.92 87.9017 94.9697 91.3769C105.021 91.005 112.957 90.7014 122.524 90.1238C122.524 90.0982 122.341 87.7409 122.341 85.3362L122.346 85.3366Z" fill="black"/>
<path d="M30.8117 74.1904C42.5983 79.0946 46.0007 79.0216 51.9547 80.5029" stroke="black" stroke-width="4.99993" stroke-linecap="round" stroke-linejoin="round"/>
<path d="M29.9614 62.7902C43.9351 64.8474 50.8613 64.5217 60.2177 65.0454" stroke="black" stroke-width="4.99993" stroke-linecap="round" stroke-linejoin="round"/>
<path d="M29.3538 49.1579C39.0747 49.2769 43.6921 48.4312 49.7677 47.8844" stroke="black" stroke-width="4.99993" stroke-linecap="round" stroke-linejoin="round"/>
<path d="M104.059 21.1909C83.6693 25.9201 75.6495 19.7315 65.3211 15.6171C76.0141 21.8689 79.6594 30.3686 103.488 26.3599L104.059 21.1909V21.1909Z" fill="black"/>
</svg>
